<svg width="230" height="204" viewBox="0 0 230 204" fill="none" xmlns="http://www.w3.org/2000/svg">
<path d="M216.443 159.098C229.511 132.237 230.39 96.449 221.367 67.748C214.093 44.7209 198.018 25.1669 176.352 12.9875C153.184 -0.0310192 125.571 -3.90552 100.692 4.31148C94.1509 6.47148 87.7833 8.45148 81.6177 12.002C56.3445 26.555 61.2224 62.402 52.3547 74.894C44.8921 85.388 30.6249 82.2965 21.6303 90.338C-2.61375 112.041 -2.67484 166.901 25.3287 184.046C55.0381 202.239 184.073 225.63 216.443 159.098Z" fill="#F7941D"/>
<path opacity="0.8" d="M216.443 159.098C229.511 132.237 230.39 96.449 221.367 67.748C214.093 44.7209 198.018 25.1669 176.352 12.9875C153.184 -0.0310192 125.571 -3.90552 100.692 4.31148C94.1509 6.47148 87.7833 8.45148 81.6177 12.002C56.3445 26.555 61.2224 62.402 52.3547 74.894C44.8921 85.388 30.6249 82.2965 21.6303 90.338C-2.61375 112.041 -2.67484 166.901 25.3287 184.046C55.0381 202.239 184.073 225.63 216.443 159.098Z" fill="white"/>
<path d="M1 189.891H229.121" stroke="#263238" stroke-width="0.712025" stroke-linecap="round" stroke-linejoin="round"/>
<path d="M165.493 2.5068L160.539 7.25113L165.493 11.9955L170.448 7.25113L165.493 2.5068Z" stroke="#263238" stroke-width="0.712025" stroke-linecap="round" stroke-linejoin="round"/>
<path d="M211.404 38.443L206.45 43.1873L211.404 47.9316L216.359 43.1873L211.404 38.443Z" stroke="#263238" stroke-width="0.712025" stroke-linecap="round" stroke-linejoin="round"/>
<path d="M51.4008 7.3922L46.4463 12.1365L51.4008 16.8809L56.3553 12.1365L51.4008 7.3922Z" stroke="#263238" stroke-width="0.712025" stroke-linecap="round" stroke-linejoin="round"/>
<path d="M133.854 162.774L128.899 167.518L133.854 172.262L138.808 167.518L133.854 162.774Z" stroke="#263238" stroke-width="0.712025" stroke-linecap="round" stroke-linejoin="round"/>
<path d="M142.018 154.956L137.064 159.701L142.018 164.445L146.973 159.701L142.018 154.956Z" stroke="#263238" stroke-width="0.712025" stroke-linecap="round" stroke-linejoin="round"/>
<path d="M155.137 12.3185L151.99 15.3318L155.137 18.3452L158.283 15.3318L155.137 12.3185Z" stroke="#263238" stroke-width="0.712025" stroke-linecap="round" stroke-linejoin="round"/>
<path d="M20.505 139.475L17.3581 142.488L20.505 145.501L23.6518 142.488L20.505 139.475Z" stroke="#263238" stroke-width="0.712025" stroke-linecap="round" stroke-linejoin="round"/>
<path d="M190.859 166.867L187.712 169.88L190.859 172.894L194.006 169.88L190.859 166.867Z" stroke="#263238" stroke-width="0.712025" stroke-linecap="round" stroke-linejoin="round"/>
<path d="M212.551 108.986H187.006C185.968 108.986 185.126 109.792 185.126 110.786V131.792C185.126 132.786 185.968 133.592 187.006 133.592H212.551C213.59 133.592 214.431 132.786 214.431 131.792V110.786C214.431 109.792 213.59 108.986 212.551 108.986Z" stroke="#263238" stroke-width="0.712025" stroke-miterlimit="10"/>
<path d="M189.341 116.492H186.804V118.922H189.341V116.492Z" stroke="#263238" stroke-width="0.712025" stroke-miterlimit="10"/>
<path d="M194.027 116.492H191.489V118.922H194.027V116.492Z" stroke="#263238" stroke-width="0.712025" stroke-miterlimit="10"/>
<path d="M198.707 116.492H196.169V118.922H198.707V116.492Z" stroke="#263238" stroke-width="0.712025" stroke-miterlimit="10"/>
<path d="M203.392 116.492H200.855V118.922H203.392V116.492Z" stroke="#263238" stroke-width="0.712025" stroke-miterlimit="10"/>
<path d="M208.078 116.492H205.54V118.922H208.078V116.492Z" stroke="#263238" stroke-width="0.712025" stroke-miterlimit="10"/>
<path d="M212.763 116.492H210.225V118.922H212.763V116.492Z" stroke="#263238" stroke-width="0.712025" stroke-miterlimit="10"/>
<path d="M189.341 121.563H186.804V123.993H189.341V121.563Z" stroke="#263238" stroke-width="0.712025" stroke-miterlimit="10"/>
<path d="M194.027 121.563H191.489V123.993H194.027V121.563Z" stroke="#263238" stroke-width="0.712025" stroke-miterlimit="10"/>
<path d="M198.707 121.563H196.169V123.993H198.707V121.563Z" stroke="#263238" stroke-width="0.712025" stroke-miterlimit="10"/>
<path d="M203.392 121.563H200.855V123.993H203.392V121.563Z" stroke="#263238" stroke-width="0.712025" stroke-miterlimit="10"/>
<path d="M208.078 121.563H205.54V123.993H208.078V121.563Z" stroke="#263238" stroke-width="0.712025" stroke-miterlimit="10"/>
<path d="M212.763 121.563H210.225V123.993H212.763V121.563Z" stroke="#263238" stroke-width="0.712025" stroke-miterlimit="10"/>
<path d="M189.341 126.635H186.804V129.065H189.341V126.635Z" stroke="#263238" stroke-width="0.712025" stroke-miterlimit="10"/>
<path d="M194.027 126.635H191.489V129.065H194.027V126.635Z" stroke="#263238" stroke-width="0.712025" stroke-miterlimit="10"/>
<path d="M198.707 126.635H196.169V129.065H198.707V126.635Z" stroke="#263238" stroke-width="0.712025" stroke-miterlimit="10"/>
<path d="M203.392 126.635H200.855V129.065H203.392V126.635Z" stroke="#263238" stroke-width="0.712025" stroke-miterlimit="10"/>
<path d="M208.078 126.635H205.54V129.065H208.078V126.635Z" stroke="#263238" stroke-width="0.712025" stroke-miterlimit="10"/>
<path d="M212.763 126.635H210.225V129.065H212.763V126.635Z" stroke="#263238" stroke-width="0.712025" stroke-miterlimit="10"/>
<path d="M208.468 111.623H191.094V113.45H208.468V111.623Z" stroke="#263238" stroke-width="0.712025" stroke-miterlimit="10"/>
<path d="M52.7954 135.03C60.1693 127.969 60.1693 116.521 52.7954 109.46C45.4215 102.398 33.466 102.398 26.0921 109.46C18.7182 116.521 18.7182 127.969 26.0921 135.03C33.466 142.091 45.4215 142.091 52.7954 135.03Z" stroke="#263238" stroke-width="0.712025" stroke-miterlimit="10"/>
<path d="M39.4409 137.984C48.5169 137.984 55.8745 130.938 55.8745 122.247C55.8745 113.556 48.5169 106.511 39.4409 106.511C30.3648 106.511 23.0072 113.556 23.0072 122.247C23.0072 130.938 30.3648 137.984 39.4409 137.984Z" stroke="#263238" stroke-width="0.712025" stroke-miterlimit="10"/>
<path d="M34.4407 126.563L39.4409 122.247L30.1032 114.111" stroke="#263238" stroke-width="0.712025" stroke-miterlimit="10"/>
<path d="M31.5177 167.963C30.5778 168.224 28.4631 167.918 28.4584 167.918C28.4537 167.918 29.0975 166.631 29.1445 166.568C29.7414 165.668 31.4284 164.318 32.6127 164.61C32.8088 164.666 32.9906 164.76 33.1463 164.887C33.3021 165.013 33.4283 165.17 33.5169 165.347C33.6055 165.523 33.6544 165.715 33.6605 165.911C33.6667 166.107 33.6299 166.301 33.5525 166.482C33.2424 167.247 32.3025 167.738 31.5177 167.963Z" fill="#263238"/>
<path d="M11.5971 167.108C11.5971 167.108 11.3857 165.699 11.3857 165.605C11.3857 164.556 11.9825 162.518 13.1479 162.14C13.3448 162.079 13.5531 162.059 13.7587 162.081C13.9644 162.103 14.1627 162.167 14.3406 162.269C14.5185 162.37 14.6717 162.506 14.7902 162.669C14.9087 162.831 14.9896 163.016 15.0277 163.211C15.2203 164.021 14.7222 164.925 14.1959 165.524C13.5521 166.23 11.5971 167.103 11.5971 167.108Z" fill="#263238"/>
<path d="M7.02933 163.314C7.67314 163.661 9.19574 163.809 9.57168 163.841C9.75966 164.088 9.95703 164.354 10.1732 164.655C10.5398 165.182 10.9533 165.78 11.3527 166.455C11.4608 166.635 11.5689 166.833 11.677 167.027C11.4232 166.739 11.0708 166.352 11.0332 166.316C10.3236 165.69 8.57072 164.88 7.63085 165.389C7.47548 165.478 7.34153 165.597 7.23784 165.739C7.13415 165.881 7.06308 166.042 7.02932 166.212C6.99556 166.382 6.99989 166.557 7.04202 166.726C7.08414 166.894 7.16311 167.052 7.27369 167.189C7.71073 167.783 8.62241 168.003 9.34142 168.026C10.0604 168.048 11.5501 167.49 11.865 167.369C12.0999 167.819 12.3349 168.237 12.537 168.719C12.9336 169.578 13.2482 170.47 13.4769 171.383L13.4205 171.405C13.2184 171.113 12.7861 170.505 12.7438 170.469C12.114 169.772 10.4646 168.782 9.4542 169.187C9.29128 169.259 9.14604 169.363 9.02795 169.493C8.90986 169.622 8.82157 169.774 8.76881 169.938C8.71606 170.103 8.70003 170.276 8.72176 170.446C8.7435 170.617 8.80252 170.781 8.89498 170.928C9.26153 171.567 10.145 171.878 10.8546 171.977C11.677 172.089 13.4299 171.59 13.4957 171.572C13.6991 172.485 13.8388 173.409 13.9139 174.339C13.975 175.028 14.0032 175.725 14.0267 176.427C13.8951 176.22 13.3265 175.428 13.2795 175.379C12.6451 174.681 10.9956 173.691 9.98993 174.096C9.82711 174.169 9.68194 174.273 9.56378 174.402C9.44563 174.532 9.35712 174.683 9.30397 174.847C9.25082 175.011 9.23423 175.184 9.25525 175.355C9.27627 175.526 9.33444 175.69 9.426 175.838C9.79725 176.477 10.676 176.792 11.3903 176.886C12.1892 176.999 13.8763 176.526 14.0173 176.486C14.0173 176.805 14.0408 177.125 14.0455 177.444C14.0737 178.488 14.0972 179.532 14.1536 180.563C14.1536 180.923 14.2053 181.274 14.2335 181.625C14.0267 181.319 13.6272 180.77 13.5896 180.725C12.9552 180.027 11.3058 179.037 10.3001 179.442C10.1373 179.515 9.9921 179.619 9.87394 179.748C9.75578 179.878 9.66727 180.029 9.61413 180.193C9.56098 180.357 9.54438 180.53 9.5654 180.701C9.58642 180.872 9.6446 181.036 9.73616 181.184C10.1074 181.823 10.9862 182.133 11.7005 182.232C12.4148 182.331 13.8387 181.967 14.2382 181.854C14.2945 182.444 14.365 183.02 14.4637 183.591C14.5107 183.834 14.5389 184.086 14.6 184.316C14.6611 184.545 14.7081 184.766 14.7598 185.013C14.8914 185.463 15.0042 185.913 15.1357 186.363C15.2015 186.584 15.2673 186.791 15.3331 187.007C15.1686 186.665 14.8961 186.107 14.8632 186.084C14.3462 185.301 12.8706 184.086 11.8274 184.343C11.6545 184.39 11.4939 184.471 11.3561 184.581C11.2183 184.692 11.1065 184.829 11.0279 184.983C10.9493 185.138 10.9058 185.307 10.9003 185.479C10.8947 185.651 10.9272 185.822 10.9956 185.981C11.2588 186.665 12.0811 187.106 12.7673 187.304C13.5286 187.524 15.2109 187.304 15.4177 187.304C15.5775 187.826 15.742 188.334 15.8876 188.807C16.0192 189.194 16.1461 189.554 16.273 189.905H16.9826C16.8275 189.5 16.663 189.068 16.5126 188.609C16.3623 188.15 16.1978 187.736 16.0427 187.259C16.8439 186.967 17.5997 186.572 18.289 186.084C18.7433 186.365 19.214 186.62 19.6988 186.849C19.5343 187.371 19.3746 187.88 19.2289 188.361C19.0832 188.843 18.9375 189.419 18.8106 189.896H19.5672C19.6706 189.446 19.7834 188.996 19.9103 188.514C20.0372 188.033 20.15 187.614 20.2909 187.164C20.4977 187.205 22.1707 187.524 22.9273 187.353C23.6839 187.182 24.4781 186.818 24.807 186.152C24.8865 185.998 24.9311 185.83 24.9379 185.658C24.9448 185.486 24.9137 185.315 24.8467 185.156C24.7797 184.997 24.6783 184.853 24.5492 184.734C24.4201 184.614 24.2661 184.523 24.0974 184.464C23.073 184.136 21.5128 185.252 20.9442 185.999C20.9066 186.044 20.54 186.656 20.3614 186.971C20.446 186.687 20.5259 186.404 20.6199 186.107C20.7468 185.679 20.8972 185.234 21.0428 184.802C21.1274 184.581 21.2073 184.352 21.2919 184.131C21.3765 183.911 21.4799 183.681 21.5739 183.465C21.7195 183.141 21.884 182.813 22.0438 182.484C22.8279 182.781 23.6555 182.959 24.4969 183.011C25.2159 182.961 26.1182 182.705 26.5317 182.111C26.6341 181.97 26.7044 181.81 26.7379 181.641C26.7714 181.472 26.7674 181.298 26.7262 181.131C26.685 180.964 26.6074 180.807 26.4986 180.67C26.3898 180.534 26.2522 180.42 26.0947 180.338C25.1548 179.865 23.416 180.743 22.7346 181.395L22.4339 181.755C22.603 181.436 22.7722 181.121 22.9602 180.806C23.4818 179.906 24.041 179.006 24.6003 178.106C24.7177 177.917 24.8305 177.728 24.948 177.543C25.3193 177.674 26.7385 178.142 27.4669 178.092C28.1953 178.043 29.0882 177.786 29.5017 177.192C29.6043 177.052 29.6749 176.892 29.7087 176.723C29.7426 176.554 29.739 176.381 29.6982 176.214C29.6574 176.046 29.5804 175.889 29.472 175.753C29.3637 175.616 29.2265 175.502 29.0694 175.419C28.1295 174.947 26.386 175.824 25.7046 176.481C25.6811 176.504 25.5307 176.684 25.3569 176.891C25.6529 176.4 25.9443 175.905 26.2121 175.406C26.6854 174.554 27.0968 173.671 27.4434 172.764C27.575 172.814 29.2244 173.399 30.0374 173.34C30.7517 173.291 31.654 173.034 32.0676 172.44C32.1702 172.3 32.2407 172.14 32.2746 171.971C32.3084 171.802 32.3048 171.629 32.2641 171.462C32.2233 171.294 32.1462 171.137 32.0379 171.001C31.9295 170.864 31.7923 170.75 31.6352 170.667C30.6953 170.217 28.9566 171.077 28.2752 171.729C28.2235 171.774 27.6736 172.436 27.4857 172.679V172.647C27.8047 171.751 28.0391 170.83 28.1859 169.893C28.321 169.057 28.4057 168.214 28.4396 167.369C28.4772 166.581 28.4396 165.866 28.4396 165.227C28.4396 164.88 28.4114 164.565 28.3927 164.273C28.3927 164.273 28.8626 163.107 28.8626 163.026C29.0882 162.126 28.9754 160.268 28.0543 159.728C27.9022 159.649 27.7348 159.6 27.5624 159.585C27.39 159.569 27.2161 159.588 27.0513 159.638C26.8865 159.689 26.7342 159.772 26.6037 159.881C26.4732 159.99 26.3671 160.123 26.292 160.272C25.9631 160.929 26.2027 161.798 26.5317 162.41C26.8607 163.022 28.0543 163.967 28.3504 164.21C28.3504 164.511 28.3739 164.84 28.3786 165.2C28.3786 165.839 28.3786 166.55 28.3222 167.333C28.3222 167.544 28.2846 167.783 28.2658 167.981C28.2188 167.612 28.1483 167.103 28.1389 167.054C27.9039 166.154 26.9123 164.552 25.8315 164.48C25.6522 164.473 25.4734 164.503 25.3067 164.566C25.14 164.63 24.9891 164.727 24.8638 164.85C24.7384 164.973 24.6414 165.119 24.579 165.28C24.5167 165.442 24.4903 165.613 24.5016 165.785C24.5251 166.514 25.1595 167.175 25.7469 167.585C26.3343 167.994 27.8945 168.305 28.2282 168.368C28.1765 168.849 28.1154 169.34 28.0167 169.848C27.8473 170.768 27.5941 171.671 27.2601 172.548H27.199C27.199 172.202 27.199 171.468 27.199 171.41C27.0721 170.51 26.2591 168.795 25.2018 168.611C25.0266 168.582 24.8471 168.589 24.6748 168.63C24.5024 168.672 24.341 168.747 24.2008 168.852C24.0606 168.957 23.9448 169.088 23.8606 169.238C23.7765 169.388 23.7259 169.553 23.7121 169.722C23.651 170.451 24.2055 171.18 24.7412 171.635C25.3616 172.166 27.0909 172.674 27.1802 172.692C26.8221 173.56 26.4061 174.405 25.9349 175.221C25.5871 175.829 25.2112 176.427 24.8258 177.021C24.8258 176.778 24.8258 175.815 24.8258 175.748C24.6989 174.848 23.886 173.133 22.8286 172.949C22.6511 172.923 22.4699 172.933 22.2967 172.978C22.1236 173.024 21.9623 173.104 21.8236 173.213C21.6848 173.322 21.5716 173.458 21.4913 173.612C21.4111 173.765 21.3655 173.934 21.3577 174.105C21.3013 174.83 21.8276 175.559 22.3916 176.018C22.9555 176.477 24.6708 177.03 24.8117 177.071C24.6379 177.341 24.464 177.615 24.2854 177.885C23.7074 178.785 23.1247 179.654 22.5748 180.545C22.3869 180.851 22.213 181.161 22.0344 181.472C22.0344 181.107 22.0344 180.437 22.0344 180.383C21.9122 179.483 21.0945 177.768 20.0419 177.584C19.8648 177.558 19.6839 177.568 19.5111 177.613C19.3382 177.658 19.1772 177.738 19.0385 177.846C18.8998 177.955 18.7865 178.09 18.706 178.244C18.6254 178.397 18.5794 178.565 18.571 178.736C18.5099 179.465 19.0409 180.194 19.6001 180.648C20.1594 181.103 21.541 181.548 21.9498 181.679C21.6632 182.196 21.3859 182.714 21.1368 183.24C21.0381 183.47 20.9207 183.69 20.8361 183.92L20.5682 184.586C20.4037 185.036 20.2486 185.486 20.0983 185.909C20.0278 186.129 19.962 186.336 19.8915 186.548C19.9526 186.179 20.0325 185.589 20.0325 185.535C20.0325 184.613 19.5249 182.835 18.5052 182.48C18.3318 182.423 18.1478 182.403 17.9656 182.421C17.7834 182.439 17.6073 182.494 17.4494 182.583C17.2915 182.672 17.1554 182.792 17.0506 182.936C16.9457 183.08 16.8744 183.243 16.8416 183.416C16.8199 183.505 16.8073 183.595 16.804 183.686C16.3273 184.355 16.0377 185.129 15.9628 185.936C15.9628 185.994 16.0098 186.696 16.038 187.052C15.944 186.773 15.85 186.494 15.7561 186.197C15.6198 185.774 15.4882 185.324 15.3566 184.883C15.3002 184.658 15.2391 184.433 15.1827 184.19C15.1263 183.947 15.084 183.74 15.0323 183.488C14.9666 183.141 14.9149 182.781 14.8632 182.421C15.6883 182.254 16.4811 181.964 17.2129 181.562C17.7815 181.143 18.3877 180.455 18.3783 179.726C18.3836 179.554 18.3509 179.383 18.2823 179.224C18.2137 179.065 18.1108 178.922 17.9803 178.804C17.8498 178.686 17.6948 178.595 17.5252 178.539C17.3557 178.482 17.1756 178.46 16.9967 178.475C15.9252 178.587 14.9948 180.23 14.8021 181.134C14.8021 181.161 14.8021 181.359 14.7551 181.584C14.7175 181.233 14.6752 180.878 14.647 180.518C14.5718 179.496 14.5248 178.457 14.4731 177.413C14.4731 177.192 14.4731 176.963 14.4355 176.76C14.8256 176.67 16.2777 176.31 16.8557 175.887C17.4337 175.464 18.0305 174.776 18.0258 174.047C18.0305 173.875 17.9972 173.704 17.928 173.545C17.8589 173.387 17.7554 173.244 17.6245 173.126C17.4936 173.008 17.3381 172.919 17.1684 172.862C16.9986 172.806 16.8184 172.785 16.6395 172.8C15.5681 172.913 14.6423 174.551 14.4496 175.455C14.4496 175.491 14.4167 175.721 14.3932 175.982C14.3603 175.419 14.3133 174.852 14.2523 174.294C14.1554 173.334 13.9889 172.38 13.7541 171.441C13.8951 171.414 15.6057 171.027 16.2495 170.541C16.8933 170.055 17.4243 169.43 17.4196 168.701C17.4239 168.527 17.3894 168.354 17.3187 168.194C17.2479 168.034 17.1423 167.89 17.0091 167.771C16.8758 167.653 16.7178 167.563 16.5455 167.508C16.3732 167.452 16.1906 167.433 16.0098 167.45C14.9384 167.567 14.0126 169.205 13.8199 170.109C13.8199 170.172 13.7259 171.009 13.7071 171.32C13.7094 171.31 13.7094 171.299 13.7071 171.288C13.4554 170.372 13.1188 169.479 12.7015 168.62C12.3336 167.848 11.9193 167.096 11.4608 166.37C11.0426 165.695 10.6149 165.101 10.2343 164.57L9.64218 163.8C9.64218 163.8 9.36021 162.581 9.33202 162.504C9.00306 161.636 7.83762 160.142 6.75676 160.178C6.57748 160.189 6.40257 160.236 6.24345 160.315C6.08433 160.395 5.94456 160.506 5.83327 160.641C5.72197 160.776 5.64165 160.932 5.59753 161.099C5.55341 161.266 5.54649 161.44 5.57722 161.609C5.69941 162.378 6.40431 162.972 7.02933 163.314Z" fill="#263238"/>
<path d="M220.47 119.322V182.61H155.341V23.8909C155.341 23.1749 155.638 22.4881 156.167 21.9818C156.696 21.4754 157.413 21.1909 158.161 21.1909H217.655C218.403 21.1909 219.12 21.4754 219.649 21.9818C220.178 22.4881 220.475 23.1749 220.475 23.8909V115.106" stroke="#263238" stroke-width="0.712025" stroke-linecap="round" stroke-linejoin="round"/>
<path d="M158.161 21.1909H217.655C218.403 21.1909 219.12 21.4754 219.649 21.9818C220.177 22.4881 220.475 23.1749 220.475 23.8909V30.8749H155.341V23.8909C155.341 23.1749 155.638 22.4881 156.167 21.9818C156.696 21.4754 157.413 21.1909 158.161 21.1909Z" fill="#263238" stroke="#263238" stroke-width="0.712025" stroke-linecap="round" stroke-linejoin="round"/>
<path d="M121.887 182.61H84.6911V23.8909C84.6911 23.1749 84.9881 22.4881 85.5169 21.9818C86.0457 21.4754 86.7629 21.1909 87.5107 21.1909H147.014C147.762 21.1909 148.479 21.4754 149.008 21.9818C149.537 22.4881 149.834 23.1749 149.834 23.8909V182.61H126.271" stroke="#263238" stroke-width="0.712025" stroke-linecap="round" stroke-linejoin="round"/>
<path d="M87.506 21.1909H147.014C147.762 21.1909 148.479 21.4754 149.008 21.9818C149.537 22.4881 149.834 23.1749 149.834 23.8909V30.8749H84.6911V23.8909C84.6911 23.1756 84.9875 22.4896 85.5153 21.9833C86.043 21.4771 86.759 21.1921 87.506 21.1909Z" fill="#263238" stroke="#263238" stroke-width="0.712025" stroke-linecap="round" stroke-linejoin="round"/>
<path d="M14.022 139.442V23.8909C14.022 23.1749 14.319 22.4881 14.8478 21.9818C15.3766 21.4754 16.0938 21.1909 16.8416 21.1909H76.3356C77.0834 21.1909 77.8006 21.4754 78.3293 21.9818C78.8581 22.4881 79.1552 23.1749 79.1552 23.8909V182.61H14.022V143.357" stroke="#263238" stroke-width="0.712025" stroke-linecap="round" stroke-linejoin="round"/>
<path d="M16.8416 21.1909H76.3356C77.0834 21.1909 77.8006 21.4754 78.3293 21.9818C78.8581 22.4881 79.1552 23.1749 79.1552 23.8909V30.8749H14.022V23.8909C14.022 23.1749 14.319 22.4881 14.8478 21.9818C15.3766 21.4754 16.0938 21.1909 16.8416 21.1909Z" fill="#263238" stroke="#263238" stroke-width="0.712025" stroke-linecap="round" stroke-linejoin="round"/>
<path d="M167.837 40.0189H160.139V52.0204H167.837V40.0189Z" fill="#F7941D" stroke="#263238" stroke-width="0.712025" stroke-linecap="round" stroke-linejoin="round"/>
<path d="M179.482 40.0189H171.784V52.0204H179.482V40.0189Z" fill="#F7941D" stroke="#263238" stroke-width="0.712025" stroke-linecap="round" stroke-linejoin="round"/>
<path d="M167.837 57.5689H160.139V69.5704H167.837V57.5689Z" fill="#263238" stroke="#263238" stroke-width="0.712025" stroke-linecap="round" stroke-linejoin="round"/>
<path d="M179.482 57.5689H171.784V69.5704H179.482V57.5689Z" fill="#263238" stroke="#263238" stroke-width="0.712025" stroke-linecap="round" stroke-linejoin="round"/>
<path d="M191.409 57.5689H183.711V69.5704H191.409V57.5689Z" fill="white" stroke="#263238" stroke-width="0.712025" stroke-linecap="round" stroke-linejoin="round"/>
<path d="M98.8174 40.0189H91.1198V52.0204H98.8174V40.0189Z" fill="#F7941D" stroke="#263238" stroke-width="0.712025" stroke-linecap="round" stroke-linejoin="round"/>
<path d="M110.462 40.0189H102.765V52.0204H110.462V40.0189Z" fill="#F7941D" stroke="#263238" stroke-width="0.712025" stroke-linecap="round" stroke-linejoin="round"/>
<path d="M98.8174 57.5689H91.1198V69.5704H98.8174V57.5689Z" fill="#263238" stroke="#263238" stroke-width="0.712025" stroke-linecap="round" stroke-linejoin="round"/>
<path d="M110.744 57.5689H103.047V69.5704H110.744V57.5689Z" fill="white" stroke="#263238" stroke-width="0.712025" stroke-linecap="round" stroke-linejoin="round"/>
<path d="M98.7516 75.1234H91.054V87.1249H98.7516V75.1234Z" fill="#B2B2B2" stroke="#263238" stroke-width="0.712025" stroke-linecap="round" stroke-linejoin="round"/>
<path d="M27.5844 40.0189H19.8868V52.0204H27.5844V40.0189Z" fill="#F7941D" stroke="#263238" stroke-width="0.712025" stroke-linecap="round" stroke-linejoin="round"/>
<path d="M39.1636 40.0189H31.466V52.0204H39.1636V40.0189Z" fill="#F7941D" stroke="#263238" stroke-width="0.712025" stroke-linecap="round" stroke-linejoin="round"/>
<path d="M50.7475 40.0189H43.05V52.0204H50.7475V40.0189Z" fill="#F7941D" stroke="#263238" stroke-width="0.712025" stroke-linecap="round" stroke-linejoin="round"/>
<path d="M62.3315 40.0189H54.6339V52.0204H62.3315V40.0189Z" fill="#F7941D" stroke="#263238" stroke-width="0.712025" stroke-linecap="round" stroke-linejoin="round"/>
<path d="M73.9107 40.0189H66.2131V52.0204H73.9107V40.0189Z" fill="#F7941D" stroke="#263238" stroke-width="0.712025" stroke-linecap="round" stroke-linejoin="round"/>
<path d="M27.5844 57.5689H19.8868V69.5704H27.5844V57.5689Z" fill="#263238" stroke="#263238" stroke-width="0.712025" stroke-linecap="round" stroke-linejoin="round"/>
<path d="M39.1636 57.5689H31.466V69.5704H39.1636V57.5689Z" fill="#263238" stroke="#263238" stroke-width="0.712025" stroke-linecap="round" stroke-linejoin="round"/>
<path d="M50.7475 57.5689H43.05V69.5704H50.7475V57.5689Z" fill="#263238" stroke="#263238" stroke-width="0.712025" stroke-linecap="round" stroke-linejoin="round"/>
<path d="M62.3315 57.5689H54.6339V69.5704H62.3315V57.5689Z" fill="white" stroke="#263238" stroke-width="0.712025" stroke-linecap="round" stroke-linejoin="round"/>
<path d="M73.9107 57.5689H66.2131V69.5704H73.9107V57.5689Z" fill="white" stroke="#263238" stroke-width="0.712025" stroke-linecap="round" stroke-linejoin="round"/>
<path d="M27.5844 75.1234H19.8868V87.1249H27.5844V75.1234Z" fill="white" stroke="#263238" stroke-width="0.712025" stroke-linecap="round" stroke-linejoin="round"/>
<path d="M39.1636 75.1234H31.466V87.1249H39.1636V75.1234Z" fill="#B2B2B2" stroke="#263238" stroke-width="0.712025" stroke-linecap="round" stroke-linejoin="round"/>
<path d="M50.7475 75.1234H43.05V87.1249H50.7475V75.1234Z" fill="#B2B2B2" stroke="#263238" stroke-width="0.712025" stroke-linecap="round" stroke-linejoin="round"/>
<path d="M207.41 65.804H191.978C190.946 65.804 189.956 66.1965 189.226 66.8953C188.496 67.594 188.087 68.5418 188.087 69.53V78.593C188.087 79.5812 188.496 80.5289 189.226 81.2276C189.956 81.9264 190.946 82.319 191.978 82.319H193.721L187.09 88.6685L198.336 82.319H207.41C208.441 82.3178 209.43 81.9247 210.159 81.226C210.887 80.5274 211.297 79.5804 211.297 78.593V69.53C211.297 68.5425 210.887 67.5955 210.159 66.8969C209.43 66.1982 208.441 65.8051 207.41 65.804Z" fill="white" stroke="#263238" stroke-width="0.712025" stroke-linecap="round" stroke-linejoin="round"/>
<path d="M196.043 74.3224C196.043 74.0739 195.967 73.8308 195.824 73.6237C195.68 73.4166 195.476 73.255 195.236 73.1593C194.997 73.0636 194.733 73.0381 194.479 73.086C194.224 73.134 193.99 73.2532 193.806 73.4286C193.622 73.604 193.497 73.8277 193.446 74.0713C193.395 74.315 193.421 74.5677 193.52 74.7974C193.619 75.027 193.787 75.2234 194.003 75.3615C194.218 75.4997 194.472 75.5734 194.731 75.5734C195.078 75.5734 195.411 75.4418 195.657 75.2073C195.903 74.9728 196.041 74.6546 196.043 74.3224Z" fill="#263238"/>
<path d="M201.184 74.3224C201.185 74.0739 201.108 73.8308 200.965 73.6237C200.821 73.4166 200.617 73.255 200.378 73.1593C200.138 73.0636 199.874 73.0381 199.62 73.086C199.365 73.134 199.131 73.2532 198.947 73.4286C198.763 73.604 198.638 73.8277 198.587 74.0713C198.536 74.315 198.562 74.5677 198.661 74.7974C198.76 75.027 198.928 75.2234 199.144 75.3615C199.359 75.4997 199.613 75.5734 199.873 75.5734C200.219 75.5734 200.552 75.4418 200.798 75.2073C201.044 74.9728 201.182 74.6546 201.184 74.3224Z" fill="#263238"/>
<path d="M206.325 74.3224C206.326 74.0739 206.25 73.8308 206.106 73.6237C205.963 73.4166 205.758 73.255 205.519 73.1593C205.279 73.0636 205.015 73.0381 204.761 73.086C204.506 73.134 204.272 73.2532 204.088 73.4286C203.904 73.604 203.779 73.8277 203.728 74.0713C203.677 74.315 203.703 74.5677 203.802 74.7974C203.901 75.027 204.069 75.2234 204.285 75.3615C204.5 75.4997 204.754 75.5734 205.014 75.5734C205.361 75.5734 205.693 75.4418 205.939 75.2073C206.185 74.9728 206.324 74.6546 206.325 74.3224Z" fill="#263238"/>
<path d="M143.33 78.9754C143.33 78.9754 142.456 80.0059 141.986 80.5189C141.516 81.0319 141.582 81.4189 142.052 81.3559C142.521 81.2929 143.663 80.1319 143.663 80.1319C143.594 80.4934 143.594 80.8639 143.663 81.2254C143.8 81.5494 144.335 81.8059 144.871 81.9994C145.407 82.1929 146.013 82.5754 146.215 82.1254C146.417 81.6754 146.149 80.3884 146.149 80.3884L143.33 78.9754Z" fill="white" stroke="#263238" stroke-width="0.712025" stroke-linecap="round" stroke-linejoin="round"/>
<path d="M159.51 88.2994C159.51 88.2994 150.111 81.4819 149.237 80.5189C148.555 79.7663 147.637 79.2466 146.619 79.0384C145.947 78.9124 144.401 78.7189 144.401 78.7189C143.644 78.2088 142.86 77.7372 142.052 77.3059C141.248 76.9189 140.844 76.1494 140.712 76.6624C140.581 77.1754 140.98 77.6884 141.784 78.1384C142.517 78.6021 143.213 79.118 143.865 79.6819C143.865 79.6819 145.745 80.6494 145.679 81.4189C145.614 82.1884 144.537 82.6384 144.133 82.5754C143.729 82.5124 142.521 81.6124 142.39 82.3189C142.258 83.0254 143.8 83.5384 144.603 83.7319C145.98 83.9929 147.37 84.1866 148.767 84.3124C149.171 84.3124 150.647 85.7254 150.647 85.7254L157.696 92.1559L159.51 88.2994Z" fill="white" stroke="#263238" stroke-width="0.712025" stroke-linecap="round" stroke-linejoin="round"/>
<path d="M159.308 87.782C159.308 87.782 157.494 89.8385 157.16 91.4495C156.826 93.0605 157.357 93.3755 158.1 93.8255C158.842 94.2755 159.707 94.7255 159.707 94.7255C159.707 94.7255 158.903 93.506 160.515 91.832C161.322 90.9764 162.174 90.1608 163.067 89.3885C163.067 89.3885 160.515 87.656 159.308 87.782Z" fill="white" stroke="#263238" stroke-width="0.712025" stroke-linecap="round" stroke-linejoin="round"/>
<path d="M160.515 91.832C160.515 91.832 158.903 93.2495 159.04 94.019C159.176 94.7885 160.045 95.306 160.313 95.432C160.581 95.558 161.859 96.845 162.461 97.232C163.062 97.619 164.406 97.556 164.543 97.8125C164.679 98.069 165.215 99.2885 165.215 99.2885C165.215 99.2885 168.302 96.5885 169.04 95.045C169.778 93.5015 169.106 91.832 168.166 90.869C167.226 89.906 164.341 89.132 164.007 89.069C163.673 89.006 163.067 89.3885 163.067 89.3885L160.515 91.832Z" fill="white" stroke="#263238" stroke-width="0.712025" stroke-linecap="round" stroke-linejoin="round"/>
<path d="M164.012 152.294C164.012 152.294 164.674 155.201 166.474 163.652C168.274 172.103 167.329 172.553 167.997 178.821C168.664 185.09 167.71 186.998 167.71 186.998C165.878 187.566 164.008 188.017 162.113 188.348C160.027 188.622 156.323 189.072 156.229 189.981C156.136 190.89 160.595 192.434 164.58 192.983C168.565 193.532 171.314 194.616 171.977 194.072C172.64 193.527 173.119 191.529 173.119 190.62C173.119 189.711 172.832 188.528 172.832 186.894C172.832 185.261 174.162 175.446 174.712 172.719C175.2 169.913 175.102 167.043 174.425 164.273C173.857 162.275 172.72 159.093 172.72 159.093L173.19 151.097L164.012 152.294Z" fill="white" stroke="#263238" stroke-width="0.712025" stroke-linecap="round" stroke-linejoin="round"/>
<path d="M164.872 154.638C164.872 154.638 165.384 154.859 168.814 154.638C172.245 154.418 173.044 153.927 173.044 153.927L173.222 151.11L164.872 154.638Z" fill="#263238" stroke="#263238" stroke-width="0.712025" stroke-linecap="round" stroke-linejoin="round"/>
<path d="M162.207 191.543C162.207 191.543 160.121 190.359 160.121 189.45C160.148 189.12 160.296 188.809 160.539 188.573C158.56 188.856 156.309 189.288 156.229 189.995C156.136 190.895 160.595 192.447 164.58 192.996C168.565 193.545 171.314 194.63 171.977 194.085C172.64 193.541 173.119 191.543 173.119 190.634C173.107 190.199 173.071 189.765 173.011 189.333C172.32 189.698 171.385 190.265 170.746 190.634C169.797 191.178 162.207 191.543 162.207 191.543Z" fill="#263238" stroke="#263238" stroke-width="0.712025" stroke-linecap="round" stroke-linejoin="round"/>
<path d="M153.194 151.565C153.194 151.565 153.856 161.379 154.524 164.196C155.191 167.013 164.106 185 164.956 186.543L165.812 188.087C163.997 189.414 161.937 190.401 159.74 190.994C156.229 191.894 153.955 191.997 154.237 192.794C154.519 193.59 156.991 194.337 160.976 194.594C164.961 194.85 170.375 195.138 171.033 194.868C171.69 194.598 172.076 191.961 172.076 190.688C172.076 189.414 171.033 187.961 170.666 186.782C170.299 185.603 167.344 175.424 166.775 172.697C166.206 169.97 165.732 169.974 164.12 166.703C162.508 163.431 162.508 164.903 161.935 162.612C161.361 160.322 164.026 152.262 164.026 152.262L153.194 151.565Z" fill="white" stroke="#263238" stroke-width="0.712025" stroke-linecap="round" stroke-linejoin="round"/>
<path d="M155.623 153.756L162.701 156.47L163.537 154.746L155.623 153.756Z" fill="#263238" stroke="#263238" stroke-width="0.712025" stroke-linecap="round" stroke-linejoin="round"/>
<path d="M159.265 191.813C159.144 191.616 159.075 191.393 159.063 191.165C155.943 191.921 153.974 192.065 154.237 192.812C154.5 193.559 156.991 194.355 160.976 194.612C164.961 194.868 170.375 195.156 171.032 194.886C171.69 194.616 172.076 191.979 172.076 190.706C172.076 190.706 164.294 193.068 162.301 193.068C160.309 193.068 159.834 192.722 159.265 191.813Z" fill="#263238" stroke="#263238" stroke-width="0.712025" stroke-linecap="round" stroke-linejoin="round"/>
<path d="M153.593 137.322C153.593 137.322 152.55 144.59 152.653 147.767C152.717 149.524 152.685 151.283 152.559 153.036C152.559 153.036 159.387 155.219 163.565 154.764C167.743 154.31 173.716 151.947 173.716 151.947C173.716 151.947 174.472 142.682 174.472 142.317C174.472 141.953 175.13 137.925 175.041 135.23C174.952 132.534 174.947 130.689 174.947 130.689C174.947 130.689 165.652 132.867 162.423 132.597C159.195 132.327 154.646 132.147 154.646 132.147L153.593 137.322Z" fill="#F7941D" stroke="#263238" stroke-width="0.712025" stroke-linecap="round" stroke-linejoin="round"/>
<path d="M164.792 98.6224C164.792 98.6224 158.213 104.4 157.39 108.869C156.568 113.337 152.724 136.989 153.043 138.915C153.043 138.915 159.801 137.606 161.413 137.606C163.025 137.606 169.134 142.38 170.342 142.844C171.549 143.307 171.549 141.998 172.837 140.454C174.125 138.911 174.125 137.219 174.364 135.603C174.604 133.988 174.928 132.521 174.928 132.521C175.317 131.179 175.612 129.814 175.812 128.435C175.896 127.202 175.088 123.584 175.088 122.04C175.088 120.497 179.111 111.717 179.435 105.633C179.759 99.5494 179.595 98.2354 179.595 98.2354L178.791 95.0224C178.791 95.0224 167.123 96.8494 164.792 98.6224Z" fill="white" stroke="#263238" stroke-width="0.712025" stroke-linecap="round" stroke-linejoin="round"/>
<path d="M166.751 113.616C166.751 113.616 168.415 118.179 170.205 120.852L166.751 113.616Z" fill="white"/>
<path d="M166.751 113.616C166.751 113.616 168.415 118.179 170.205 120.852" stroke="#263238" stroke-width="0.712025" stroke-linecap="round" stroke-linejoin="round"/>
<path d="M169.294 125.474C169.491 125.955 169.693 126.423 169.909 126.864L169.294 125.474Z" fill="white"/>
<path d="M169.294 125.474C169.491 125.955 169.693 126.423 169.909 126.864" stroke="#263238" stroke-width="0.712025" stroke-linecap="round" stroke-linejoin="round"/>
<path d="M166.817 117.608C166.817 117.608 167.56 120.78 168.697 123.939L166.817 117.608Z" fill="white"/>
<path d="M166.817 117.608C166.817 117.608 167.56 120.78 168.697 123.939" stroke="#263238" stroke-width="0.712025" stroke-linecap="round" stroke-linejoin="round"/>
<path d="M176.62 80.5144C176.62 80.5144 174.769 76.046 171.31 75.659C167.851 75.272 164.388 76.433 163.18 78.8089C161.972 81.1849 161.333 82.5079 161.333 83.7589C161.333 85.0099 162.216 85.1449 161.892 86.3014C161.568 87.4579 160.689 87.5344 161.089 88.0744C161.383 88.4261 161.773 88.6925 162.216 88.844C162.216 88.844 163.744 93.0064 164.712 93.2359C165.68 93.4654 166.723 92.5429 166.723 92.5429L168.49 95.3915L174.928 93.6724C174.928 93.6724 174.284 88.5109 174.689 87.2014C175.093 85.8919 177.184 84.0514 177.344 83.0389C177.504 82.0264 176.62 80.5144 176.62 80.5144Z" fill="white" stroke="#263238" stroke-width="0.712025" stroke-linecap="round" stroke-linejoin="round"/>
<path d="M162.724 86.1844C162.724 86.6344 162.602 86.9809 162.447 86.9809C162.292 86.9809 162.174 86.6254 162.174 86.1844C162.174 85.7434 162.296 85.3924 162.447 85.3924C162.597 85.3924 162.724 85.7479 162.724 86.1844Z" fill="#263238"/>
<path d="M161.709 84.8615C161.709 84.8615 162.259 84.0335 162.733 84.713L161.709 84.8615Z" fill="white"/>
<path d="M161.709 84.8615C161.709 84.8615 162.259 84.0335 162.733 84.713" stroke="#263238" stroke-width="0.534019" stroke-linecap="round" stroke-linejoin="round"/>
<path d="M162.884 90.4099L163.669 89.8834" stroke="#263238" stroke-width="0.534019" stroke-linecap="round" stroke-linejoin="round"/>
<path d="M175.332 93.1504C175.332 93.1504 168.171 94.9234 167.123 95.8504C166.253 96.7059 165.467 97.6352 164.773 98.6269C164.773 98.6269 170.727 96.7009 172.494 96.3769L176.037 95.7604C175.865 94.8761 175.629 94.0041 175.332 93.1504Z" fill="white" stroke="#263238" stroke-width="0.712025" stroke-linecap="round" stroke-linejoin="round"/>
<path d="M176.62 80.5145C176.62 80.5145 174.769 76.046 171.31 75.659C168.49 75.3485 165.694 76.0505 164.092 77.603L163.819 77.666C163.819 77.666 161.817 77.513 161.098 78.7415C160.534 79.7045 161.643 81.041 162.146 81.572C162.038 82.202 162.08 82.7735 162.456 83.057C163.584 83.903 164.547 83.597 164.806 84.5195C165.064 85.442 165.37 86.063 165.849 85.7525C166.328 85.442 166.093 83.984 167.217 83.903C168.34 83.822 168.908 84.83 168.749 85.91C168.589 86.99 168.185 87.5255 168.279 87.755C168.373 87.9845 171.418 90.455 173.589 90.2975C173.964 90.2471 174.318 90.1044 174.618 89.8835C174.53 88.9951 174.563 88.0996 174.717 87.2195C175.116 85.91 177.212 84.0695 177.372 83.057C177.532 82.0445 176.62 80.5145 176.62 80.5145Z" fill="#263238" stroke="#263238" stroke-width="0.712025" stroke-linecap="round" stroke-linejoin="round"/>
<path d="M176.62 80.5144C175.3 81.1245 174.172 82.0591 173.352 83.2228C172.533 84.3865 172.05 85.7377 171.954 87.1384C171.629 91.9939 174.444 93.9199 174.125 94.9234C173.805 95.9269 172.677 96.5389 173.481 97.1734C174.284 97.8079 175.008 97.8664 174.769 98.4829C174.505 99.2305 174.347 100.008 174.299 100.796C174.299 101.336 175.91 102.182 175.746 102.875C175.582 103.568 174.863 103.725 175.506 104.184C176.15 104.643 176.07 104.954 177.034 104.801C177.997 104.648 177.598 103.185 178.321 103.109C179.045 103.032 179.289 103.644 180.412 102.722C181.536 101.799 181.221 100.472 181.381 100.103C181.54 99.7339 182.184 99.7924 182.588 99.2524C182.802 98.9513 182.941 98.6079 182.996 98.2479C183.052 97.888 183.021 97.5206 182.908 97.1734C182.644 96.5607 182.616 95.8782 182.828 95.2474C183.068 94.5544 183.392 93.6319 183.147 92.9389C182.993 92.4607 182.886 91.9695 182.828 91.4719C182.828 91.4719 183.876 90.0859 183.876 89.0869C183.896 87.9016 183.677 86.7237 183.232 85.6174C182.762 84.6139 181.7 83.7679 181.62 83.3044C181.54 82.8409 181.381 81.7654 180.412 81.1489C179.444 80.5324 177.583 80.2084 176.62 80.5144Z" fill="#263238" stroke="#263238" stroke-width="0.712025" stroke-linecap="round" stroke-linejoin="round"/>
<path d="M141.539 99.6979L148.297 111.101L152.963 110.718L146.286 99.6214L141.539 99.6979Z" fill="#263238" stroke="#263238" stroke-width="0.712025" stroke-linecap="round" stroke-linejoin="round"/>
<path d="M150.618 112.005C150.618 112.005 150.214 109.616 149.867 109.062C149.543 108.555 149.343 107.985 149.284 107.393C149.11 106.493 148.936 106.394 148.344 106.839C147.752 107.285 147.935 108.284 147.996 108.558C148.057 108.833 147.705 108.617 147.183 108.108C146.662 107.6 145.383 106.664 145.383 106.664C145.275 106.677 145.171 106.715 145.081 106.775C144.991 106.834 144.917 106.914 144.866 107.006C144.815 107.099 144.787 107.202 144.787 107.307C144.786 107.412 144.812 107.516 144.862 107.609C145.077 108.094 145.252 108.595 145.383 109.107C145.383 109.107 145.092 111.272 145.44 112.05C145.788 112.829 147.183 113.607 147.183 113.607L148.631 114.386L152.39 119.943C152.39 119.943 151.577 119.885 152.912 118.22C154.246 116.555 155.059 115.997 155.003 115.83C154.947 115.664 150.882 112.68 150.882 112.68L150.618 112.005Z" fill="white" stroke="#263238" stroke-width="0.712025" stroke-linecap="round" stroke-linejoin="round"/>
<path d="M154.448 115.007C154.448 115.007 152.418 115.227 151.723 116.564C151.027 117.9 150.562 118.283 150.91 118.895C151.258 119.507 152.014 120.839 152.475 121.118C152.755 121.287 153.047 121.438 153.349 121.568C153.349 121.568 152.592 119.678 153.697 118.418C154.421 117.609 155.308 116.948 156.305 116.474C155.744 115.921 155.122 115.429 154.448 115.007Z" fill="white" stroke="#263238" stroke-width="0.712025" stroke-linecap="round" stroke-linejoin="round"/>
<path d="M169.073 105.282C169.073 105.282 169.129 106.839 169.073 108.225C169.016 109.611 167.663 111.618 167.663 111.618C167.192 112.206 166.87 112.89 166.723 113.616C166.606 114.615 166.488 116.172 166.314 116.564C166.14 116.955 162.137 125.451 161.328 125.897C160.52 126.342 159.702 126.176 158.25 125.447C156.798 124.718 153.349 121.572 153.349 121.572C153.023 121.088 152.879 120.512 152.943 119.939C153.006 119.366 153.272 118.831 153.697 118.422C155.205 116.757 156.305 116.478 156.305 116.478L157.353 116.757C157.353 116.757 157.757 113.643 158.293 112.257C158.76 111.043 159.053 109.772 159.162 108.482C159.13 107.583 159.374 106.694 159.862 105.926C160.44 105.093 161.31 103.703 162.644 103.203" fill="white"/>
<path d="M169.073 105.282C169.073 105.282 169.129 106.839 169.073 108.225C169.016 109.611 167.663 111.618 167.663 111.618C167.192 112.206 166.87 112.89 166.723 113.616C166.606 114.615 166.488 116.172 166.314 116.564C166.14 116.955 162.137 125.451 161.328 125.897C160.52 126.342 159.702 126.176 158.25 125.447C156.798 124.718 153.349 121.572 153.349 121.572C153.023 121.088 152.879 120.512 152.943 119.939C153.006 119.366 153.272 118.831 153.697 118.422C155.205 116.757 156.305 116.478 156.305 116.478L157.353 116.757C157.353 116.757 157.757 113.643 158.293 112.257C158.76 111.043 159.053 109.772 159.162 108.482C159.13 107.583 159.374 106.694 159.862 105.926C160.44 105.093 161.31 103.703 162.644 103.203" stroke="#263238" stroke-width="0.712025" stroke-linecap="round" stroke-linejoin="round"/>
<path d="M157.353 116.73C157.353 116.73 157.7 120.618 158.335 121.896L157.353 116.73Z" fill="white"/>
<path d="M157.353 116.73C157.353 116.73 157.7 120.618 158.335 121.896" stroke="#263238" stroke-width="0.712025" stroke-linecap="round" stroke-linejoin="round"/>
<path d="M157.353 121.896C157.473 122.313 157.621 122.722 157.794 123.12L157.353 121.896Z" fill="white"/>
<path d="M157.353 121.896C157.473 122.313 157.621 122.722 157.794 123.12" stroke="#263238" stroke-width="0.712025" stroke-linecap="round" stroke-linejoin="round"/>
<path d="M156.652 118.841C156.652 118.841 156.831 119.817 157.122 120.906L156.652 118.841Z" fill="white"/>
<path d="M156.652 118.841C156.652 118.841 156.831 119.817 157.122 120.906" stroke="#263238" stroke-width="0.712025" stroke-linecap="round" stroke-linejoin="round"/>
<path d="M107.431 80.0014C107.431 80.0014 107.563 82.8679 107.333 83.7589C107.102 84.6499 105.476 85.7029 105.476 85.7029L105.359 87.8674C105.359 87.8674 103.507 88.2544 101.999 88.6459C100.49 89.0374 97.9997 89.8654 96.9517 89.1994L97.0128 83.3224C97.0128 83.3224 95.603 79.4389 98.7516 77.1619C99.7539 76.3617 101.037 75.9564 102.339 76.0282C103.642 76.1001 104.868 76.6437 105.768 77.5489C106.397 78.3173 106.954 79.1381 107.431 80.0014Z" fill="white" stroke="#263238" stroke-width="0.712025" stroke-linecap="round" stroke-linejoin="round"/>
<path d="M103.31 71.1725C104.251 70.8585 105.284 70.9151 106.181 71.33C107.591 72.041 106.266 74.084 106.266 74.084C106.266 74.084 107.991 74.8715 107.826 76.1315C107.662 77.3915 107.253 77.702 107.253 77.702L107.417 79.9835C107.417 79.9835 106.599 78.8225 106.13 79.7675C105.66 80.7125 104.898 81.8105 104.814 82.7555C104.729 83.7005 103.667 85.7435 101.773 86.0585C99.8794 86.3735 97.0128 85.82 96.6039 85.1945C96.1951 84.569 94.4704 80.2445 94.9639 76.6985C95.4573 73.1525 98.2534 71.2715 100.053 70.9565C101.141 70.7695 102.26 70.8438 103.31 71.1725Z" fill="#263238" stroke="#263238" stroke-width="0.712025" stroke-linecap="round" stroke-linejoin="round"/>
<path d="M106.693 80.3164C106.693 80.3164 106.463 80.3164 106.581 81.6664C106.698 83.0164 106.346 83.5564 105.942 83.0164C105.723 82.6584 105.594 82.257 105.564 81.8434C105.534 81.4298 105.604 81.0151 105.768 80.6314C106.13 79.7674 106.755 79.3174 106.693 80.3164Z" fill="white" stroke="#263238" stroke-width="0.712025" stroke-linecap="round" stroke-linejoin="round"/>
<path d="M101.064 187.754C101.064 187.754 101.961 188.919 102.6 189.959C103.239 190.998 103.752 191.615 102.793 192.285C101.834 192.956 101.195 193.023 99.7854 192.897C98.3756 192.771 94.6161 191.547 93.9018 190.94C93.1875 190.332 93.7702 189.041 93.7702 189.041L94.4564 187.367L101.064 187.754Z" fill="white" stroke="#263238" stroke-width="0.712025" stroke-linecap="round" stroke-linejoin="round"/>
<path d="M93.5681 189.815C95.3492 190.557 98.1735 191.673 100.044 191.795C101.914 191.916 102.863 191.606 103.333 191.385C103.343 191.568 103.299 191.749 103.206 191.908C103.113 192.067 102.975 192.198 102.807 192.285C101.867 192.96 101.209 193.023 99.7995 192.897C98.3897 192.771 94.6302 191.547 93.9159 190.94C93.7677 190.793 93.6586 190.614 93.5981 190.418C93.5376 190.222 93.5273 190.015 93.5681 189.815Z" fill="white" stroke="#263238" stroke-width="0.712025" stroke-linecap="round" stroke-linejoin="round"/>
<path d="M75.5414 187.079C73.4267 187.263 72.7876 189.284 72.2753 190.386C71.7631 191.489 70.9313 192.776 70.9971 193.82C71.0034 193.909 71.0144 193.998 71.03 194.085C70.628 193.082 70.5286 191.99 70.7433 190.935C71.124 189.711 72.6231 186.026 72.6231 186.026C72.6231 186.026 76.0959 184.55 78.502 186.026C78.502 186.026 78.737 187.826 78.3563 188.852C78.3563 188.856 77.6514 186.894 75.5414 187.079Z" fill="white" stroke="#263238" stroke-width="0.712025" stroke-linecap="round" stroke-linejoin="round"/>
<path d="M78.502 186.03C78.502 186.03 78.7369 187.83 78.3563 188.856C77.9757 189.882 77.3929 190.818 77.4587 191.246C77.5245 191.673 78.8685 193.329 77.971 193.946C77.0734 194.562 72.5949 195.17 71.7631 194.985C70.9313 194.801 70.3533 192.168 70.7433 190.935C71.1334 189.702 72.6231 186.026 72.6231 186.026C72.6231 186.026 76.0959 184.572 78.502 186.03Z" fill="white" stroke="#263238" stroke-width="0.712025" stroke-linecap="round" stroke-linejoin="round"/>
<path d="M70.6494 192.456C70.7224 192.252 70.8152 192.055 70.9266 191.867C71.1146 191.624 73.0789 186.341 75.3628 186.039C76.8713 185.841 77.9851 186.746 78.5725 187.389C78.5777 187.886 78.5048 188.381 78.3563 188.856C78.3563 188.856 77.6514 186.894 75.5367 187.079C73.422 187.263 72.7829 189.284 72.2706 190.386C71.7584 191.489 70.9266 192.776 70.9924 193.82C70.9987 193.909 71.0097 193.998 71.0253 194.085C70.8263 193.56 70.6999 193.013 70.6494 192.456Z" fill="white" stroke="#263238" stroke-width="0.712025" stroke-linecap="round" stroke-linejoin="round"/>
<path d="M109.819 123.822L109.447 140.999L101.068 184.649C101.068 184.649 102.008 185.216 101.806 186.129C101.604 187.043 101.219 188.24 101.219 188.24C101.219 188.24 98.7892 189.59 96.9517 189.297C96.405 189.2 95.8916 188.975 95.4566 188.643C95.0216 188.311 94.6781 187.882 94.4564 187.394C94.4564 187.394 94.5268 185.004 94.6772 184.244C94.8276 183.483 95.4103 182.129 95.4855 181.004C95.5607 179.879 96.4254 176.85 96.4254 176.85L96.3502 139.685H94.8793L83.6337 166.784L80.1092 181.004C80.2258 181.34 80.2316 181.703 80.1257 182.043C80.0198 182.382 79.8073 182.683 79.5171 182.903C78.9524 183.322 78.5198 183.883 78.267 184.523L78.4879 186.071C77.608 185.807 76.6934 185.665 75.7717 185.648C74.7052 185.686 73.6455 185.828 72.609 186.071L72.3176 184.032C72.3176 184.032 71.4342 183.47 71.5046 182.975C71.5751 182.48 72.6842 180.792 72.7547 180.369C72.8252 179.946 72.1673 177.485 72.3881 176.85C72.609 176.216 78.065 155.772 78.065 155.772L83.0604 132.899L86.3499 124.241L109.819 123.822Z" fill="#263238" stroke="#263238" stroke-width="0.712025" stroke-linecap="round" stroke-linejoin="round"/>
<path d="M117.441 54.7204C117.441 54.7204 116.609 54.7654 116.468 55.2514C116.327 55.7374 117.027 56.6734 117.027 56.6734C117.027 56.6734 117.408 55.2109 117.441 54.7204Z" fill="white" stroke="#263238" stroke-width="0.712025" stroke-linecap="round" stroke-linejoin="round"/>
<path d="M116.468 55.2514C116.468 55.2514 115.82 55.7014 115.867 56.2324C115.914 56.7634 116.421 57.3394 116.698 57.3394C116.976 57.3394 117.027 56.6734 117.027 56.6734C117.027 56.6734 116.609 55.6969 116.468 55.2514Z" fill="white" stroke="#263238" stroke-width="0.712025" stroke-linecap="round" stroke-linejoin="round"/>
<path d="M115.867 56.2325C115.709 56.3598 115.597 56.5311 115.547 56.7224C115.496 56.9136 115.51 57.1152 115.585 57.299C115.733 57.6428 115.994 57.9317 116.327 58.1225L116.698 57.3215C116.387 56.9837 116.108 56.6191 115.867 56.2325Z" fill="white" stroke="#263238" stroke-width="0.712025" stroke-linecap="round" stroke-linejoin="round"/>
<path d="M114.932 56.3314H122.629V44.3299H114.932V56.3314Z" fill="#F7941D" stroke="#263238" stroke-width="0.712025" stroke-linecap="round" stroke-linejoin="round"/>
<path d="M115.495 75.5104C115.495 75.5104 116.792 69.3814 117.164 67.7389C117.535 66.0964 117.441 63.1174 117.441 63.1174C117.061 62.6867 116.745 62.2083 116.501 61.6954C116.36 61.2049 116.778 60.1384 116.778 60.1384C116.517 59.6395 116.357 59.0972 116.308 58.5409C116.308 57.8299 117.009 56.6734 117.009 56.6734C117.222 56.0392 117.361 55.3841 117.422 54.7204C117.469 53.8204 117.61 53.1634 118.118 53.2984C118.369 53.3424 118.592 53.4786 118.739 53.6778C118.887 53.8771 118.947 54.1237 118.907 54.3649C118.907 55.0309 118.86 56.2774 118.86 56.2774L121.506 56.3629C121.506 56.3629 120.627 62.4064 120.669 62.8069C120.712 63.2074 122.295 74.7544 122.201 75.8569C122.107 76.9594 121.971 78.4354 121.971 78.4354C121.971 78.4354 118.86 75.9469 117.657 75.9019C116.921 75.8721 116.192 75.7402 115.495 75.5104Z" fill="white" stroke="#263238" stroke-width="0.712025" stroke-linecap="round" stroke-linejoin="round"/>
<path d="M116.792 60.1384L117.803 61.3894" stroke="#263238" stroke-width="0.712025" stroke-linecap="round" stroke-linejoin="round"/>
<path d="M80.4052 114.008C79.9984 115.8 79.413 117.551 78.6571 119.237C77.951 120.736 77.4594 122.319 77.1956 123.944C77.1956 123.944 78.4879 126.338 78.2811 127.215C78.0744 128.093 77.3413 129.807 77.3413 130.248C77.3413 130.689 77.0076 131.486 76.4249 131.283C75.8422 131.081 75.5085 130.568 75.0903 130.446C74.672 130.325 73.093 129.609 72.9238 129.051C72.7547 128.493 72.9661 126.801 72.9661 126.801C72.9661 126.801 73.5489 123.404 73.5489 123.246C73.5036 121.09 73.6009 118.933 73.8402 116.789C74.2162 114.035 74.7566 111.798 74.7566 111.798C74.7566 111.798 77.1956 113.967 80.4052 114.008Z" fill="white" stroke="#263238" stroke-width="0.712025" stroke-linecap="round" stroke-linejoin="round"/>
<path d="M77.407 129.672C77.231 129.666 77.0612 129.608 76.9196 129.508C76.778 129.408 76.6711 129.269 76.6128 129.11C76.5018 128.584 76.5018 128.043 76.6128 127.517C76.3322 127.369 76.094 127.156 75.9194 126.899C75.7448 126.641 75.6392 126.347 75.6119 126.041" fill="white"/>
<path d="M77.407 129.672C77.231 129.666 77.0612 129.608 76.9196 129.508C76.778 129.408 76.6711 129.269 76.6128 129.11C76.5018 128.584 76.5018 128.043 76.6128 127.517C76.3322 127.369 76.094 127.156 75.9194 126.899C75.7448 126.641 75.6392 126.347 75.6119 126.041" stroke="#263238" stroke-width="0.712025" stroke-linecap="round" stroke-linejoin="round"/>
<path d="M75.3487 126.441C75.3487 126.441 75.532 126.959 74.6814 127.233L75.3487 126.441Z" fill="white"/>
<path d="M75.3487 126.441C75.3487 126.441 75.532 126.959 74.6814 127.233" stroke="#263238" stroke-width="0.712025" stroke-linecap="round" stroke-linejoin="round"/>
<path d="M73.671 129.191C73.671 129.191 73.718 128.349 73.9342 128.237C73.9903 128.193 74.0575 128.165 74.1289 128.154C74.2003 128.143 74.2734 128.151 74.3408 128.176C74.4081 128.201 74.4673 128.243 74.5123 128.297C74.5573 128.351 74.5864 128.416 74.5968 128.484C74.719 128.894 75.0668 129.533 74.8365 129.834C74.6062 130.136 74.6955 130.194 74.1222 129.992" fill="white"/>
<path d="M73.671 129.191C73.671 129.191 73.718 128.349 73.9342 128.237C73.9903 128.193 74.0575 128.165 74.1289 128.154C74.2003 128.143 74.2734 128.151 74.3408 128.176C74.4081 128.201 74.4673 128.243 74.5123 128.297C74.5573 128.351 74.5864 128.416 74.5968 128.484C74.719 128.894 75.0668 129.533 74.8365 129.834C74.6062 130.136 74.6955 130.194 74.1222 129.992" stroke="#263238" stroke-width="0.712025" stroke-linecap="round" stroke-linejoin="round"/>
<path d="M74.86 128.462C74.86 128.462 75.2876 128.192 75.5273 128.327C75.7125 128.501 75.8553 128.713 75.9455 128.946C76.0357 129.179 76.071 129.429 76.0489 129.677C75.9549 130.203 75.7858 130.541 75.3111 130.451" fill="white"/>
<path d="M74.86 128.462C74.86 128.462 75.2876 128.192 75.5273 128.327C75.7125 128.501 75.8553 128.713 75.9455 128.946C76.0357 129.179 76.071 129.429 76.0489 129.677C75.9549 130.203 75.7858 130.541 75.3111 130.451" stroke="#263238" stroke-width="0.712025" stroke-linecap="round" stroke-linejoin="round"/>
<path d="M75.9784 128.826C75.9784 128.826 76.1476 128.75 76.3826 128.939C76.686 129.399 76.7953 129.952 76.688 130.487C76.5236 130.806 76.4296 130.986 76.0254 130.964" fill="white"/>
<path d="M75.9784 128.826C75.9784 128.826 76.1476 128.75 76.3826 128.939C76.686 129.399 76.7953 129.952 76.688 130.487C76.5236 130.806 76.4296 130.986 76.0254 130.964" stroke="#263238" stroke-width="0.712025" stroke-linecap="round" stroke-linejoin="round"/>
<path d="M105.359 87.8674L112.281 82.3729L115.42 76.9234C115.42 76.9234 118.151 76.4239 119.72 77.7019C121.29 78.9799 121.346 80.3164 120.998 80.9824C120.651 81.6484 114.955 94.2259 114.838 94.3924C114.72 94.5589 111.994 108.855 111.994 108.855C111.994 108.855 109.96 122.306 110.152 123.035C110.345 123.764 110.401 124.974 109.706 125.096C109.01 125.217 94.5691 125.46 93.305 125.64C92.0409 125.82 89.3152 125.159 87.2851 124.853C85.255 124.547 86.021 122.603 86.209 121.82C86.3969 121.037 87.8584 104.841 87.8584 104.841L81.5848 112.968C81.5848 112.968 81.143 113.868 78.737 113.27C76.3309 112.671 75.6965 110.178 75.6965 109.872C75.6965 109.566 80.8658 101.264 81.6506 99.8689C82.4354 98.4739 84.5125 92.8939 86.3922 91.7419C88.272 90.5899 96.1434 89.1949 96.1434 89.1949L105.359 87.8674Z" fill="#F7941D" stroke="#263238" stroke-width="0.712025" stroke-linecap="round" stroke-linejoin="round"/>
<path d="M101.618 122.193C101.022 122.641 100.393 123.048 99.7384 123.413" stroke="#263238" stroke-width="0.712025" stroke-linecap="round" stroke-linejoin="round"/>
<path d="M111.43 110.03C111.43 110.03 107.774 117.032 102.6 121.41" stroke="#263238" stroke-width="0.712025" stroke-linecap="round" stroke-linejoin="round"/>
<path d="M107.539 118.584C107.539 118.584 103.503 123.138 99.9029 124.934" stroke="#263238" stroke-width="0.712025" stroke-linecap="round" stroke-linejoin="round"/>
<path d="M103.07 115.826C103.07 115.826 98.1735 120.776 95.4385 122.31" stroke="#263238" stroke-width="0.712025" stroke-linecap="round" stroke-linejoin="round"/>
<path d="M109.927 99.5224C109.593 99.9229 109.226 100.341 108.836 100.778" stroke="#263238" stroke-width="0.712025" stroke-linecap="round" stroke-linejoin="round"/>
<path d="M113.592 94.442C112.795 95.8322 111.878 97.1567 110.852 98.402" stroke="#263238" stroke-width="0.712025" stroke-linecap="round" stroke-linejoin="round"/>
<path d="M87.8584 104.841L88.8077 100.238L85.692 107.627L87.8584 104.841Z" fill="#263238" stroke="#263238" stroke-width="0.712025" stroke-linecap="round" stroke-linejoin="round"/>
<path d="M106.665 86.9494C106.261 86.7665 105.837 86.6247 105.401 86.5264C104.955 86.4634 97.6096 87.5569 97.1021 87.6154C96.5945 87.6739 95.5184 89.3164 95.5184 89.3164L105.359 87.8674L106.665 86.9494Z" fill="#F7941D" stroke="#263238" stroke-width="0.712025" stroke-linecap="round" stroke-linejoin="round"/>
<path d="M76.2792 108.522C76.2792 108.522 76.4061 110.637 76.9042 111.276C77.4023 111.915 79.658 112.316 80.3206 112.392C80.9034 112.442 81.4889 112.455 82.0735 112.433C81.8274 113.007 81.5481 113.567 81.237 114.111C80.9457 114.561 80.3206 114.669 78.5725 114.561C76.8243 114.453 74.5733 112.806 74.343 112.248C74.1128 111.69 74.9305 110.448 75.1795 109.854C75.4604 109.351 75.8328 108.9 76.2792 108.522Z" fill="#F7941D" stroke="#263238" stroke-width="0.712025" stroke-linecap="round" stroke-linejoin="round"/>
<path d="M114.612 78.2194C114.612 78.2194 114.288 77.0674 114.612 76.4464C114.936 75.8254 115.679 75.0649 116.374 75.0649C117.89 75.0241 119.372 75.5028 120.552 76.4149C122.314 77.7649 122.408 78.6649 122.126 79.4344C121.844 80.2039 121.106 81.3874 120.923 81.3874C120.74 81.3874 119.946 78.1024 117.812 77.7469C115.679 77.3914 114.612 78.2194 114.612 78.2194Z" fill="#F7941D" stroke="#263238" stroke-width="0.712025" stroke-linecap="round" stroke-linejoin="round"/>
</svg>
